<svg xmlns="http://www.w3.org/2000/svg" xmlns:xlink="http://www.w3.org/1999/xlink" viewBox="0 0 255 67" preserveAspectRatio="xMidYMid" style="display: block; shape-rendering: auto; background: transparent;" width="255" height="67"><style type="text/css">
  .ld-text text {
    text-anchor: middle;
    dominant-baseline: middle;
    font-size: 57px;
    opacity: 0;
    user-select: none;
    pointer-events: none;
  }
</style>
<g style="transform-origin:127.5px 33.5px;transform:scale(1)" class="ld-text">
<g transform="translate(127.5,33.5)">
  <g transform="scale(0.7125) translate(0,0)"><g class="path" style="opacity: 1; animation: 1.88679s linear -1.14949s infinite normal forwards running animate-aadwguflzp7; transform-box: view-box; transform-origin: -154.24px -5.49px 0px;"><path d="M15.68 45.83Q9.36 45.83 6.04 42.23Q2.72 38.63 2.72 32.07L2.72 32.07L2.72 1.99Q2.72-4.57 6.04-8.17Q9.36-11.77 15.68-11.77L15.68-11.77Q22-11.77 25.32-8.17Q28.64-4.57 28.64 1.99L28.64 1.99L28.64 7.91L20.32 7.91L20.32 1.43Q20.32-3.77 15.92-3.77L15.92-3.77Q11.52-3.77 11.52 1.43L11.52 1.43L11.52 32.71Q11.52 37.83 15.92 37.83L15.92 37.83Q20.32 37.83 20.32 32.71L20.32 32.71L20.32 24.15L28.64 24.15L28.64 32.07Q28.64 38.63 25.32 42.23Q22 45.83 15.68 45.83L15.68 45.83" style="fill: rgb(242, 242, 242);" transform="translate(-169.920,-22.517)"></path></g><g class="path" style="opacity: 1; animation: 1.88679s linear -1.0537s infinite normal forwards running animate-aadwguflzp7; transform-box: view-box; transform-origin: -123.12px -5.49px 0px;"><path d="M46.80 45.83Q40.32 45.83 36.88 42.15Q33.44 38.47 33.44 31.75L33.44 31.75L33.44 2.31Q33.44-4.41 36.88-8.09Q40.32-11.77 46.80-11.77L46.80-11.77Q53.28-11.77 56.72-8.09Q60.16-4.41 60.16 2.31L60.16 2.31L60.16 31.75Q60.16 38.47 56.72 42.15Q53.28 45.83 46.80 45.83L46.80 45.83 zM46.80 37.83Q51.36 37.83 51.36 32.31L51.36 32.31L51.36 1.75Q51.36-3.77 46.80-3.77L46.80-3.77Q42.24-3.77 42.24 1.75L42.24 1.75L42.24 32.31Q42.24 37.83 46.80 37.83L46.80 37.83" style="fill: rgb(242, 242, 242);" transform="translate(-169.920,-22.517)"></path></g><g class="path" style="opacity: 1; animation: 1.88679s linear -0.95791s infinite normal forwards running animate-aadwguflzp7; transform-box: view-box; transform-origin: -90.04px -5.49px 0px;"><path d="M66.08 45.03L66.08-10.97L77.12-10.97L85.68 22.55L85.84 22.55L85.84-10.97L93.68-10.97L93.68 45.03L84.64 45.03L74.08 4.15L73.92 4.15L73.92 45.03L66.08 45.03" style="fill: rgb(242, 242, 242);" transform="translate(-169.920,-22.517)"></path></g><g class="path" style="opacity: 1; animation: 1.88679s linear -0.862119s infinite normal forwards running animate-aadwguflzp7; transform-box: view-box; transform-origin: -55.88px -5.49px 0px;"><path d="M100.24 45.03L100.24-10.97L111.28-10.97L119.84 22.55L120 22.55L120-10.97L127.84-10.97L127.84 45.03L118.80 45.03L108.24 4.15L108.08 4.15L108.08 45.03L100.24 45.03" style="fill: rgb(242, 242, 242);" transform="translate(-169.920,-22.517)"></path></g><g class="path" style="opacity: 1; animation: 1.88679s linear -0.766328s infinite normal forwards running animate-aadwguflzp7; transform-box: view-box; transform-origin: -23.52px -5.49px 0px;"><path d="M134.40 45.03L134.40-10.97L158.40-10.97L158.40-2.97L143.20-2.97L143.20 11.83L155.28 11.83L155.28 19.83L143.20 19.83L143.20 37.03L158.40 37.03L158.40 45.03L134.40 45.03" style="fill: rgb(242, 242, 242);" transform="translate(-169.920,-22.517)"></path></g><g class="path" style="opacity: 1; animation: 1.88679s linear -0.670537s infinite normal forwards running animate-aadwguflzp7; transform-box: view-box; transform-origin: 5.92px -5.49px 0px;"><path d="M175.84 45.83Q169.52 45.83 166.20 42.23Q162.88 38.63 162.88 32.07L162.88 32.07L162.88 1.99Q162.88-4.57 166.20-8.17Q169.52-11.77 175.84-11.77L175.84-11.77Q182.16-11.77 185.48-8.17Q188.80-4.57 188.80 1.99L188.80 1.99L188.80 7.91L180.48 7.91L180.48 1.43Q180.48-3.77 176.08-3.77L176.08-3.77Q171.68-3.77 171.68 1.43L171.68 1.43L171.68 32.71Q171.68 37.83 176.08 37.83L176.08 37.83Q180.48 37.83 180.48 32.71L180.48 32.71L180.48 24.15L188.80 24.15L188.80 32.07Q188.80 38.63 185.48 42.23Q182.16 45.83 175.84 45.83L175.84 45.83" style="fill: rgb(242, 242, 242);" transform="translate(-169.920,-22.517)"></path></g><g class="path" style="opacity: 1; animation: 1.88679s linear -0.574746s infinite normal forwards running animate-aadwguflzp7; transform-box: view-box; transform-origin: 35.44px -5.49px 0px;"><path d="M200.96 45.03L200.96-2.97L191.76-2.97L191.76-10.97L218.96-10.97L218.96-2.97L209.76-2.97L209.76 45.03L200.96 45.03" style="fill: rgb(242, 242, 242);" transform="translate(-169.920,-22.517)"></path></g><g class="path" style="opacity: 1; animation: 1.88679s linear -0.478955s infinite normal forwards running animate-aadwguflzp7; transform-box: view-box; transform-origin: 57.68px -5.49px 0px;"><path d="M223.20 45.03L223.20-10.97L232-10.97L232 45.03L223.20 45.03" style="fill: rgb(242, 242, 242);" transform="translate(-169.920,-22.517)"></path></g><g class="path" style="opacity: 1; animation: 1.88679s linear -0.383164s infinite normal forwards running animate-aadwguflzp7; transform-box: view-box; transform-origin: 82.44px -5.49px 0px;"><path d="M238.56 45.03L238.56-10.97L249.60-10.97L258.16 22.55L258.32 22.55L258.32-10.97L266.16-10.97L266.16 45.03L257.12 45.03L246.56 4.15L246.40 4.15L246.40 45.03L238.56 45.03" style="fill: rgb(242, 242, 242);" transform="translate(-169.920,-22.517)"></path></g><g class="path" style="opacity: 1; animation: 1.88679s linear -0.287373s infinite normal forwards running animate-aadwguflzp7; transform-box: view-box; transform-origin: 115.28px -5.49px 0px;"><path d="M285.20 45.83Q278.80 45.83 275.44 42.19Q272.08 38.55 272.08 31.75L272.08 31.75L272.08 2.31Q272.08-4.49 275.44-8.13Q278.80-11.77 285.20-11.77L285.20-11.77Q291.60-11.77 294.96-8.13Q298.32-4.49 298.32 2.31L298.32 2.31L298.32 7.11L290 7.11L290 1.75Q290-3.77 285.44-3.77L285.44-3.77Q280.88-3.77 280.88 1.75L280.88 1.75L280.88 32.39Q280.88 37.83 285.44 37.83L285.44 37.83Q290 37.83 290 32.39L290 32.39L290 21.43L285.60 21.43L285.60 13.43L298.32 13.43L298.32 31.75Q298.32 38.55 294.96 42.19Q291.60 45.83 285.20 45.83L285.20 45.83" style="fill: rgb(242, 242, 242);" transform="translate(-169.920,-22.517)"></path></g><g class="path" style="opacity: 1; animation: 1.88679s linear -0.191582s infinite normal forwards running animate-aadwguflzp7; transform-box: view-box; transform-origin: 138.32px 18.27px 0px;"><path d="M304 45.03L304 36.55L312.48 36.55L312.48 45.03L304 45.03" style="fill: rgb(242, 242, 242);" transform="translate(-169.920,-22.517)"></path></g><g class="path" style="opacity: 1; animation: 1.88679s linear -0.095791s infinite normal forwards running animate-aadwguflzp7; transform-box: view-box; transform-origin: 153.36px 18.27px 0px;"><path d="M319.04 45.03L319.04 36.55L327.52 36.55L327.52 45.03L319.04 45.03" style="fill: rgb(242, 242, 242);" transform="translate(-169.920,-22.517)"></path></g><g class="path" style="opacity: 1; animation: 1.88679s linear 0s infinite normal forwards running animate-aadwguflzp7; transform-box: view-box; transform-origin: 168.4px 18.27px 0px;"><path d="M334.08 45.03L334.08 36.55L342.56 36.55L342.56 45.03L334.08 45.03" style="fill: rgb(242, 242, 242);" transform="translate(-169.920,-22.517)"></path></g></g><text dy="0.35em" fill="#f2f2f2" font-family="Bebas Neue" font-size="57">Connecting...</text>
</g>
</g><style type="text/css">@keyframes animate-aadwguflzp7 { 0.00% {animation-timing-function: cubic-bezier(0.33,0.00,0.67,0.00);transform: translate(0.00px,0.00px) rotate(0.00deg) scale(1.00, 1.00) skew(0deg, 0.00deg) ;opacity: 1.00;}48.00% {transform: translate(0.00px,0.00px) rotate(0.00deg) ;opacity: 1.00;}50.00% {animation-timing-function: cubic-bezier(0.33,0.00,0.67,0.00);transform: translate(0.00px,0.00px) rotate(0.00deg) ;opacity: 0.00;}100.00% {animation-timing-function: cubic-bezier(0.33,0.00,0.67,0.00);transform: translate(0.00px,0.00px) rotate(0.00deg) ;opacity: 0.00;} }</style><!-- [ldio] generated by https://loading.io --></svg>