<svg xmlns="http://www.w3.org/2000/svg" xmlns:xlink="http://www.w3.org/1999/xlink" viewBox="0 0 255 67" preserveAspectRatio="xMidYMid" style="display: block; shape-rendering: auto; background: transparent;" width="255" height="67"><style type="text/css">
  .ld-text text {
    text-anchor: middle;
    dominant-baseline: middle;
    font-size: 57px;
    opacity: 0;
    user-select: none;
    pointer-events: none;
  }
</style>
<g style="transform-origin:127.5px 33.5px;transform:scale(1)" class="ld-text">
<g transform="translate(127.5,33.5)">
  <g transform="scale(0.7125) translate(0,0)"><g class="path" style="opacity: 1; animation: 1.88679s linear -1.13208s infinite normal forwards running animate-aadwguflzp7; transform-box: view-box; transform-origin: -130.08px -1.48px 0px;"><path d="M15.68 53.83Q9.36 53.83 6.04 50.23Q2.72 46.63 2.72 40.07L2.72 40.07L2.72 9.99Q2.72 3.43 6.04-0.17Q9.36-3.77 15.68-3.77L15.68-3.77Q22-3.77 25.32-0.17Q28.64 3.43 28.64 9.99L28.64 9.99L28.64 15.91L20.32 15.91L20.32 9.43Q20.32 4.23 15.92 4.23L15.92 4.23Q11.52 4.23 11.52 9.43L11.52 9.43L11.52 40.71Q11.52 45.83 15.92 45.83L15.92 45.83Q20.32 45.83 20.32 40.71L20.32 40.71L20.32 32.15L28.64 32.15L28.64 40.07Q28.64 46.63 25.32 50.23Q22 53.83 15.68 53.83L15.68 53.83" style="fill: rgb(242, 242, 242);" transform="translate(-145.760,-26.513)"></path></g><g class="path" style="opacity: 1; animation: 1.88679s linear -1.01887s infinite normal forwards running animate-aadwguflzp7; transform-box: view-box; transform-origin: -98.96px -1.48px 0px;"><path d="M46.80 53.83Q40.32 53.83 36.88 50.15Q33.44 46.47 33.44 39.75L33.44 39.75L33.44 10.31Q33.44 3.59 36.88-0.09Q40.32-3.77 46.80-3.77L46.80-3.77Q53.28-3.77 56.72-0.09Q60.16 3.59 60.16 10.31L60.16 10.31L60.16 39.75Q60.16 46.47 56.72 50.15Q53.28 53.83 46.80 53.83L46.80 53.83 zM46.80 45.83Q51.36 45.83 51.36 40.31L51.36 40.31L51.36 9.75Q51.36 4.23 46.80 4.23L46.80 4.23Q42.24 4.23 42.24 9.75L42.24 9.75L42.24 40.31Q42.24 45.83 46.80 45.83L46.80 45.83" style="fill: rgb(242, 242, 242);" transform="translate(-145.760,-26.513)"></path></g><g class="path" style="opacity: 1; animation: 1.88679s linear -0.90566s infinite normal forwards running animate-aadwguflzp7; transform-box: view-box; transform-origin: -65.88px -1.48px 0px;"><path d="M66.08 53.03L66.08-2.97L77.12-2.97L85.68 30.55L85.84 30.55L85.84-2.97L93.68-2.97L93.68 53.03L84.64 53.03L74.08 12.15L73.92 12.15L73.92 53.03L66.08 53.03" style="fill: rgb(242, 242, 242);" transform="translate(-145.760,-26.513)"></path></g><g class="path" style="opacity: 1; animation: 1.88679s linear -0.792453s infinite normal forwards running animate-aadwguflzp7; transform-box: view-box; transform-origin: -31.72px -1.48px 0px;"><path d="M100.24 53.03L100.24-2.97L111.28-2.97L119.84 30.55L120 30.55L120-2.97L127.84-2.97L127.84 53.03L118.80 53.03L108.24 12.15L108.08 12.15L108.08 53.03L100.24 53.03" style="fill: rgb(242, 242, 242);" transform="translate(-145.760,-26.513)"></path></g><g class="path" style="opacity: 1; animation: 1.88679s linear -0.679245s infinite normal forwards running animate-aadwguflzp7; transform-box: view-box; transform-origin: 0.64px -1.48px 0px;"><path d="M134.40 53.03L134.40-2.97L158.40-2.97L158.40 5.03L143.20 5.03L143.20 19.83L155.28 19.83L155.28 27.83L143.20 27.83L143.20 45.03L158.40 45.03L158.40 53.03L134.40 53.03" style="fill: rgb(242, 242, 242);" transform="translate(-145.760,-26.513)"></path></g><g class="path" style="opacity: 1; animation: 1.88679s linear -0.566038s infinite normal forwards running animate-aadwguflzp7; transform-box: view-box; transform-origin: 30.08px -1.48px 0px;"><path d="M175.84 53.83Q169.52 53.83 166.20 50.23Q162.88 46.63 162.88 40.07L162.88 40.07L162.88 9.99Q162.88 3.43 166.20-0.17Q169.52-3.77 175.84-3.77L175.84-3.77Q182.16-3.77 185.48-0.17Q188.80 3.43 188.80 9.99L188.80 9.99L188.80 15.91L180.48 15.91L180.48 9.43Q180.48 4.23 176.08 4.23L176.08 4.23Q171.68 4.23 171.68 9.43L171.68 9.43L171.68 40.71Q171.68 45.83 176.08 45.83L176.08 45.83Q180.48 45.83 180.48 40.71L180.48 40.71L180.48 32.15L188.80 32.15L188.80 40.07Q188.80 46.63 185.48 50.23Q182.16 53.83 175.84 53.83L175.84 53.83" style="fill: rgb(242, 242, 242);" transform="translate(-145.760,-26.513)"></path></g><g class="path" style="opacity: 1; animation: 1.88679s linear -0.45283s infinite normal forwards running animate-aadwguflzp7; transform-box: view-box; transform-origin: 59.6px -1.48px 0px;"><path d="M200.96 53.03L200.96 5.03L191.76 5.03L191.76-2.97L218.96-2.97L218.96 5.03L209.76 5.03L209.76 53.03L200.96 53.03" style="fill: rgb(242, 242, 242);" transform="translate(-145.760,-26.513)"></path></g><g class="path" style="opacity: 1; animation: 1.88679s linear -0.339623s infinite normal forwards running animate-aadwguflzp7; transform-box: view-box; transform-origin: 89.44px -1.48px 0px;"><path d="M223.20 53.03L223.20-2.97L247.20-2.97L247.20 5.03L232 5.03L232 19.83L244.08 19.83L244.08 27.83L232 27.83L232 45.03L247.20 45.03L247.20 53.03L223.20 53.03" style="fill: rgb(242, 242, 242);" transform="translate(-145.760,-26.513)"></path></g><g class="path" style="opacity: 1; animation: 1.88679s linear -0.226415s infinite normal forwards running animate-aadwguflzp7; transform-box: view-box; transform-origin: 119.76px -1.48px 0px;"><path d="M252.24 53.03L252.24-2.97L265.68-2.97Q272.24-2.97 275.52 0.55Q278.80 4.07 278.80 10.87L278.80 10.87L278.80 39.19Q278.80 45.99 275.52 49.51Q272.24 53.03 265.68 53.03L265.68 53.03L252.24 53.03 zM261.04 45.03L265.52 45.03Q267.68 45.03 268.84 43.75Q270 42.47 270 39.59L270 39.59L270 10.47Q270 7.59 268.84 6.31Q267.68 5.03 265.52 5.03L265.52 5.03L261.04 5.03L261.04 45.03" style="fill: rgb(242, 242, 242);" transform="translate(-145.760,-26.513)"></path></g><g class="path" style="opacity: 1; animation: 1.88679s linear -0.113208s infinite normal forwards running animate-aadwguflzp7; transform-box: view-box; transform-origin: 144.08px -8.88px 0px;"><path d="M286.56 38.23L285.44 20.39L285.44-2.97L294.24-2.97L294.24 20.39L293.12 38.23L286.56 38.23" style="fill: rgb(242, 242, 242);" transform="translate(-145.760,-26.513)"></path></g><g class="path" style="opacity: 1; animation: 1.88679s linear 0s infinite normal forwards running animate-aadwguflzp7; transform-box: view-box; transform-origin: 144.08px 22.28px 0px;"><path d="M285.60 53.03L285.60 44.55L294.08 44.55L294.08 53.03L285.60 53.03" style="fill: rgb(242, 242, 242);" transform="translate(-145.760,-26.513)"></path></g></g><text dy="0.35em" fill="#f2f2f2" font-family="Bebas Neue" font-size="57">Connected!</text>
</g>
</g><style type="text/css">@keyframes animate-aadwguflzp7 { 0.00% {animation-timing-function: cubic-bezier(0.33,0.00,0.67,0.00);transform: translate(0.00px,0.00px) rotate(0.00deg) scale(1.00, 1.00) skew(0deg, 0.00deg) ;opacity: 1.00;}48.00% {transform: translate(0.00px,0.00px) rotate(0.00deg) ;opacity: 1.00;}50.00% {animation-timing-function: cubic-bezier(0.33,0.00,0.67,0.00);transform: translate(0.00px,0.00px) rotate(0.00deg) ;opacity: 0.00;}100.00% {animation-timing-function: cubic-bezier(0.33,0.00,0.67,0.00);transform: translate(0.00px,0.00px) rotate(0.00deg) ;opacity: 0.00;} }</style><!-- [ldio] generated by https://loading.io --></svg>