<svg xmlns="http://www.w3.org/2000/svg" xmlns:xlink="http://www.w3.org/1999/xlink" viewBox="0 0 255 67" preserveAspectRatio="xMidYMid" style="display: block; shape-rendering: auto; background: transparent;" width="255" height="67"><style type="text/css">
  .ld-text text {
    text-anchor: middle;
    dominant-baseline: middle;
    font-size: 57px;
    opacity: 0;
    user-select: none;
    pointer-events: none;
  }
</style>
<g style="transform-origin:127.5px 33.5px;transform:scale(1)" class="ld-text">
<g transform="translate(127.5,33.5)">
  <g transform="scale(0.7125) translate(0,0)"><g class="path" style="opacity: 1; animation: 1.88679s linear -1.10692s infinite normal forwards running animate-aadwguflzp7; transform-box: view-box; transform-origin: -113.6px -0.05px 0px;"><path d="M3.28 55.91L3.28-0.09L27.28-0.09L27.28 7.91L12.08 7.91L12.08 22.71L24.16 22.71L24.16 30.71L12.08 30.71L12.08 47.91L27.28 47.91L27.28 55.91L3.28 55.91" style="fill: rgb(242, 242, 242);" transform="translate(-128.880,-27.956)"></path></g><g class="path" style="opacity: 1; animation: 1.88679s linear -0.968554s infinite normal forwards running animate-aadwguflzp7; transform-box: view-box; transform-origin: -83.44px -0.05px 0px;"><path d="M30.08 55.91L40.24 27.27L30.56-0.09L39.84-0.09L45.76 17.99L45.92 17.99L52-0.09L60.32-0.09L50.64 27.27L60.80 55.91L51.52 55.91L45.12 36.39L44.96 36.39L38.40 55.91L30.08 55.91" style="fill: rgb(242, 242, 242);" transform="translate(-128.880,-27.956)"></path></g><g class="path" style="opacity: 1; animation: 1.88679s linear -0.830189s infinite normal forwards running animate-aadwguflzp7; transform-box: view-box; transform-origin: -51.92px -0.05px 0px;"><path d="M64.96 55.91L64.96-0.09L88.96-0.09L88.96 7.91L73.76 7.91L73.76 22.71L85.84 22.71L85.84 30.71L73.76 30.71L73.76 47.91L88.96 47.91L88.96 55.91L64.96 55.91" style="fill: rgb(242, 242, 242);" transform="translate(-128.880,-27.956)"></path></g><g class="path" style="opacity: 1; animation: 1.88679s linear -0.691824s infinite normal forwards running animate-aadwguflzp7; transform-box: view-box; transform-origin: -22.48px -0.05px 0px;"><path d="M106.40 56.71Q100.08 56.71 96.76 53.11Q93.44 49.51 93.44 42.95L93.44 42.95L93.44 12.87Q93.44 6.31 96.76 2.71Q100.08-0.89 106.40-0.89L106.40-0.89Q112.72-0.89 116.04 2.71Q119.36 6.31 119.36 12.87L119.36 12.87L119.36 18.79L111.04 18.79L111.04 12.31Q111.04 7.11 106.64 7.11L106.64 7.11Q102.24 7.11 102.24 12.31L102.24 12.31L102.24 43.59Q102.24 48.71 106.64 48.71L106.64 48.71Q111.04 48.71 111.04 43.59L111.04 43.59L111.04 35.03L119.36 35.03L119.36 42.95Q119.36 49.51 116.04 53.11Q112.72 56.71 106.40 56.71L106.40 56.71" style="fill: rgb(242, 242, 242);" transform="translate(-128.880,-27.956)"></path></g><g class="path" style="opacity: 1; animation: 1.88679s linear -0.553459s infinite normal forwards running animate-aadwguflzp7; transform-box: view-box; transform-origin: 8.56px 0.35px 0px;"><path d="M137.44 56.71Q131.04 56.71 127.68 53.07Q124.32 49.43 124.32 42.63L124.32 42.63L124.32-0.09L133.12-0.09L133.12 43.27Q133.12 46.15 134.28 47.43Q135.44 48.71 137.60 48.71L137.60 48.71Q139.76 48.71 140.92 47.43Q142.08 46.15 142.08 43.27L142.08 43.27L142.08-0.09L150.56-0.09L150.56 42.63Q150.56 49.43 147.20 53.07Q143.84 56.71 137.44 56.71L137.44 56.71" style="fill: rgb(242, 242, 242);" transform="translate(-128.880,-27.956)"></path></g><g class="path" style="opacity: 1; animation: 1.88679s linear -0.415094s infinite normal forwards running animate-aadwguflzp7; transform-box: view-box; transform-origin: 39.2px -0.05px 0px;"><path d="M163.68 55.91L163.68 7.91L154.48 7.91L154.48-0.09L181.68-0.09L181.68 7.91L172.48 7.91L172.48 55.91L163.68 55.91" style="fill: rgb(242, 242, 242);" transform="translate(-128.880,-27.956)"></path></g><g class="path" style="opacity: 1; animation: 1.88679s linear -0.27673s infinite normal forwards running animate-aadwguflzp7; transform-box: view-box; transform-origin: 61.44px -0.05px 0px;"><path d="M185.92 55.91L185.92-0.09L194.72-0.09L194.72 55.91L185.92 55.91" style="fill: rgb(242, 242, 242);" transform="translate(-128.880,-27.956)"></path></g><g class="path" style="opacity: 1; animation: 1.88679s linear -0.138365s infinite normal forwards running animate-aadwguflzp7; transform-box: view-box; transform-origin: 86.2px -0.05px 0px;"><path d="M201.28 55.91L201.28-0.09L212.32-0.09L220.88 33.43L221.04 33.43L221.04-0.09L228.88-0.09L228.88 55.91L219.84 55.91L209.28 15.03L209.12 15.03L209.12 55.91L201.28 55.91" style="fill: rgb(242, 242, 242);" transform="translate(-128.880,-27.956)"></path></g><g class="path" style="opacity: 1; animation: 1.88679s linear 0s infinite normal forwards running animate-aadwguflzp7; transform-box: view-box; transform-origin: 119.04px -0.05px 0px;"><path d="M247.92 56.71Q241.52 56.71 238.16 53.07Q234.80 49.43 234.80 42.63L234.80 42.63L234.80 13.19Q234.80 6.39 238.16 2.75Q241.52-0.89 247.92-0.89L247.92-0.89Q254.32-0.89 257.68 2.75Q261.04 6.39 261.04 13.19L261.04 13.19L261.04 17.99L252.72 17.99L252.72 12.63Q252.72 7.11 248.16 7.11L248.16 7.11Q243.60 7.11 243.60 12.63L243.60 12.63L243.60 43.27Q243.60 48.71 248.16 48.71L248.16 48.71Q252.72 48.71 252.72 43.27L252.72 43.27L252.72 32.31L248.32 32.31L248.32 24.31L261.04 24.31L261.04 42.63Q261.04 49.43 257.68 53.07Q254.32 56.71 247.92 56.71L247.92 56.71" style="fill: rgb(242, 242, 242);" transform="translate(-128.880,-27.956)"></path></g></g><text dy="0.35em" fill="#f2f2f2" font-family="Bebas Neue" font-size="57">Executing</text>
</g>
</g><style type="text/css">@keyframes animate-aadwguflzp7 { 0.00% {animation-timing-function: cubic-bezier(0.33,0.00,0.67,0.00);transform: translate(0.00px,0.00px) rotate(0.00deg) scale(1.00, 1.00) skew(0deg, 0.00deg) ;opacity: 1.00;}48.00% {transform: translate(0.00px,0.00px) rotate(0.00deg) ;opacity: 1.00;}50.00% {animation-timing-function: cubic-bezier(0.33,0.00,0.67,0.00);transform: translate(0.00px,0.00px) rotate(0.00deg) ;opacity: 0.00;}100.00% {animation-timing-function: cubic-bezier(0.33,0.00,0.67,0.00);transform: translate(0.00px,0.00px) rotate(0.00deg) ;opacity: 0.00;} }</style><!-- [ldio] generated by https://loading.io --></svg>