<svg xmlns="http://www.w3.org/2000/svg" xmlns:xlink="http://www.w3.org/1999/xlink" viewBox="0 0 304 67" preserveAspectRatio="xMidYMid" style="display: block; shape-rendering: auto; background: transparent;" width="304" height="67"><style type="text/css">
  .ld-text text {
    text-anchor: middle;
    dominant-baseline: middle;
    font-size: 57px;
    opacity: 0;
    user-select: none;
    pointer-events: none;
  }
</style>
<g style="transform-origin:152px 33.5px;transform:scale(1)" class="ld-text">
<g transform="translate(152,33.5)">
  <g transform="scale(0.7125) translate(0,0)"><g class="path" style="opacity: 1; animation: 1.88679s linear -1.15633s infinite normal forwards running animate-aadwguflzp7; transform-box: view-box; transform-origin: -182.32px -1.17px 0px;"><path d="M9.44 53.66L0.96-2.34L9.84-2.34L15.60 41.10L15.76 41.10L21.52-2.34L29.60-2.34L21.12 53.66L9.44 53.66" style="fill: rgb(242, 242, 242);" transform="translate(-197.600,-26.831)"></path></g><g class="path" style="opacity: 1; animation: 1.88679s linear -1.06739s infinite normal forwards running animate-aadwguflzp7; transform-box: view-box; transform-origin: -151.2px -1.17px 0px;"><path d="M46.40 54.46Q39.92 54.46 36.48 50.78Q33.04 47.10 33.04 40.38L33.04 40.38L33.04 10.94Q33.04 4.22 36.48 0.54Q39.92-3.14 46.40-3.14L46.40-3.14Q52.88-3.14 56.32 0.54Q59.76 4.22 59.76 10.94L59.76 10.94L59.76 40.38Q59.76 47.10 56.32 50.78Q52.88 54.46 46.40 54.46L46.40 54.46 zM46.40 46.46Q50.96 46.46 50.96 40.94L50.96 40.94L50.96 10.38Q50.96 4.86 46.40 4.86L46.40 4.86Q41.84 4.86 41.84 10.38L41.84 10.38L41.84 40.94Q41.84 46.46 46.40 46.46L46.40 46.46" style="fill: rgb(242, 242, 242);" transform="translate(-197.600,-26.831)"></path></g><g class="path" style="opacity: 1; animation: 1.88679s linear -0.978437s infinite normal forwards running animate-aadwguflzp7; transform-box: view-box; transform-origin: -120.96px -1.17px 0px;"><path d="M72.24 53.66L72.24 5.66L63.04 5.66L63.04-2.34L90.24-2.34L90.24 5.66L81.04 5.66L81.04 53.66L72.24 53.66" style="fill: rgb(242, 242, 242);" transform="translate(-197.600,-26.831)"></path></g><g class="path" style="opacity: 1; animation: 1.88679s linear -0.889488s infinite normal forwards running animate-aadwguflzp7; transform-box: view-box; transform-origin: -91.12px -1.17px 0px;"><path d="M94.48 53.66L94.48-2.34L118.48-2.34L118.48 5.66L103.28 5.66L103.28 20.46L115.36 20.46L115.36 28.46L103.28 28.46L103.28 45.66L118.48 45.66L118.48 53.66L94.48 53.66" style="fill: rgb(242, 242, 242);" transform="translate(-197.600,-26.831)"></path></g><g class="path" style="opacity: 1; animation: 1.88679s linear -0.800539s infinite normal forwards running animate-aadwguflzp7; transform-box: view-box; transform-origin: -47.72px -1.17px 0px;"><path d="M136.32 53.66L136.32-2.34L149.36-2.34Q156.16-2.34 159.28 0.82Q162.40 3.98 162.40 10.54L162.40 10.54L162.40 13.98Q162.40 22.70 156.64 25.02L156.64 25.02L156.64 25.18Q159.84 26.14 161.16 29.10Q162.48 32.06 162.48 37.02L162.48 37.02L162.48 46.86Q162.48 49.26 162.64 50.74Q162.80 52.22 163.44 53.66L163.44 53.66L154.48 53.66Q154 52.30 153.84 51.10Q153.68 49.90 153.68 46.78L153.68 46.78L153.68 36.54Q153.68 32.70 152.44 31.18Q151.20 29.66 148.16 29.66L148.16 29.66L145.12 29.66L145.12 53.66L136.32 53.66 zM145.12 21.66L148.32 21.66Q150.96 21.66 152.28 20.30Q153.60 18.94 153.60 15.74L153.60 15.74L153.60 11.42Q153.60 8.38 152.52 7.02Q151.44 5.66 149.12 5.66L149.12 5.66L145.12 5.66L145.12 21.66" style="fill: rgb(242, 242, 242);" transform="translate(-197.600,-26.831)"></path></g><g class="path" style="opacity: 1; animation: 1.88679s linear -0.71159s infinite normal forwards running animate-aadwguflzp7; transform-box: view-box; transform-origin: -17.04px -1.17px 0px;"><path d="M168.56 53.66L168.56-2.34L192.56-2.34L192.56 5.66L177.36 5.66L177.36 20.46L189.44 20.46L189.44 28.46L177.36 28.46L177.36 45.66L192.56 45.66L192.56 53.66L168.56 53.66" style="fill: rgb(242, 242, 242);" transform="translate(-197.600,-26.831)"></path></g><g class="path" style="opacity: 1; animation: 1.88679s linear -0.622642s infinite normal forwards running animate-aadwguflzp7; transform-box: view-box; transform-origin: 12.4px -1.17px 0px;"><path d="M210 54.46Q203.68 54.46 200.36 50.86Q197.04 47.26 197.04 40.70L197.04 40.70L197.04 10.62Q197.04 4.06 200.36 0.46Q203.68-3.14 210-3.14L210-3.14Q216.32-3.14 219.64 0.46Q222.96 4.06 222.96 10.62L222.96 10.62L222.96 16.54L214.64 16.54L214.64 10.06Q214.64 4.86 210.24 4.86L210.24 4.86Q205.84 4.86 205.84 10.06L205.84 10.06L205.84 41.34Q205.84 46.46 210.24 46.46L210.24 46.46Q214.64 46.46 214.64 41.34L214.64 41.34L214.64 32.78L222.96 32.78L222.96 40.70Q222.96 47.26 219.64 50.86Q216.32 54.46 210 54.46L210 54.46" style="fill: rgb(242, 242, 242);" transform="translate(-197.600,-26.831)"></path></g><g class="path" style="opacity: 1; animation: 1.88679s linear -0.533693s infinite normal forwards running animate-aadwguflzp7; transform-box: view-box; transform-origin: 43.52px -1.17px 0px;"><path d="M241.12 54.46Q234.64 54.46 231.20 50.78Q227.76 47.10 227.76 40.38L227.76 40.38L227.76 10.94Q227.76 4.22 231.20 0.54Q234.64-3.14 241.12-3.14L241.12-3.14Q247.60-3.14 251.04 0.54Q254.48 4.22 254.48 10.94L254.48 10.94L254.48 40.38Q254.48 47.10 251.04 50.78Q247.60 54.46 241.12 54.46L241.12 54.46 zM241.12 46.46Q245.68 46.46 245.68 40.94L245.68 40.94L245.68 10.38Q245.68 4.86 241.12 4.86L241.12 4.86Q236.56 4.86 236.56 10.38L236.56 10.38L236.56 40.94Q236.56 46.46 241.12 46.46L241.12 46.46" style="fill: rgb(242, 242, 242);" transform="translate(-197.600,-26.831)"></path></g><g class="path" style="opacity: 1; animation: 1.88679s linear -0.444744s infinite normal forwards running animate-aadwguflzp7; transform-box: view-box; transform-origin: 76.36px -1.17px 0px;"><path d="M260.40 53.66L260.40-2.34L273.44-2.34Q280.24-2.34 283.36 0.82Q286.48 3.98 286.48 10.54L286.48 10.54L286.48 13.98Q286.48 22.70 280.72 25.02L280.72 25.02L280.72 25.18Q283.92 26.14 285.24 29.10Q286.56 32.06 286.56 37.02L286.56 37.02L286.56 46.86Q286.56 49.26 286.72 50.74Q286.88 52.22 287.52 53.66L287.52 53.66L278.56 53.66Q278.08 52.30 277.92 51.10Q277.76 49.90 277.76 46.78L277.76 46.78L277.76 36.54Q277.76 32.70 276.52 31.18Q275.28 29.66 272.24 29.66L272.24 29.66L269.20 29.66L269.20 53.66L260.40 53.66 zM269.20 21.66L272.40 21.66Q275.04 21.66 276.36 20.30Q277.68 18.94 277.68 15.74L277.68 15.74L277.68 11.42Q277.68 8.38 276.60 7.02Q275.52 5.66 273.20 5.66L273.20 5.66L269.20 5.66L269.20 21.66" style="fill: rgb(242, 242, 242);" transform="translate(-197.600,-26.831)"></path></g><g class="path" style="opacity: 1; animation: 1.88679s linear -0.355795s infinite normal forwards running animate-aadwguflzp7; transform-box: view-box; transform-origin: 108.32px -1.17px 0px;"><path d="M292.64 53.66L292.64-2.34L306.08-2.34Q312.64-2.34 315.92 1.18Q319.20 4.70 319.20 11.50L319.20 11.50L319.20 39.82Q319.20 46.62 315.92 50.14Q312.64 53.66 306.08 53.66L306.08 53.66L292.64 53.66 zM301.44 45.66L305.92 45.66Q308.08 45.66 309.24 44.38Q310.40 43.10 310.40 40.22L310.40 40.22L310.40 11.10Q310.40 8.22 309.24 6.94Q308.08 5.66 305.92 5.66L305.92 5.66L301.44 5.66L301.44 45.66" style="fill: rgb(242, 242, 242);" transform="translate(-197.600,-26.831)"></path></g><g class="path" style="opacity: 1; animation: 1.88679s linear -0.266846s infinite normal forwards running animate-aadwguflzp7; transform-box: view-box; transform-origin: 139.52px -1.17px 0px;"><path d="M325.12 53.66L325.12-2.34L349.12-2.34L349.12 5.66L333.92 5.66L333.92 20.46L346 20.46L346 28.46L333.92 28.46L333.92 45.66L349.12 45.66L349.12 53.66L325.12 53.66" style="fill: rgb(242, 242, 242);" transform="translate(-197.600,-26.831)"></path></g><g class="path" style="opacity: 1; animation: 1.88679s linear -0.177898s infinite normal forwards running animate-aadwguflzp7; transform-box: view-box; transform-origin: 169.84px -1.17px 0px;"><path d="M354.16 53.66L354.16-2.34L367.60-2.34Q374.16-2.34 377.44 1.18Q380.72 4.70 380.72 11.50L380.72 11.50L380.72 39.82Q380.72 46.62 377.44 50.14Q374.16 53.66 367.60 53.66L367.60 53.66L354.16 53.66 zM362.96 45.66L367.44 45.66Q369.60 45.66 370.76 44.38Q371.92 43.10 371.92 40.22L371.92 40.22L371.92 11.10Q371.92 8.22 370.76 6.94Q369.60 5.66 367.44 5.66L367.44 5.66L362.96 5.66L362.96 45.66" style="fill: rgb(242, 242, 242);" transform="translate(-197.600,-26.831)"></path></g><g class="path" style="opacity: 1; animation: 1.88679s linear -0.0889488s infinite normal forwards running animate-aadwguflzp7; transform-box: view-box; transform-origin: 194.16px -8.57px 0px;"><path d="M388.48 38.86L387.36 21.02L387.36-2.34L396.16-2.34L396.16 21.02L395.04 38.86L388.48 38.86" style="fill: rgb(242, 242, 242);" transform="translate(-197.600,-26.831)"></path></g><g class="path" style="opacity: 1; animation: 1.88679s linear 0s infinite normal forwards running animate-aadwguflzp7; transform-box: view-box; transform-origin: 194.16px 22.59px 0px;"><path d="M387.52 53.66L387.52 45.18L396 45.18L396 53.66L387.52 53.66" style="fill: rgb(242, 242, 242);" transform="translate(-197.600,-26.831)"></path></g></g><text dy="0.35em" fill="#f2f2f2" font-family="Bebas Neue" font-size="57">Vote Recorded!</text>
</g>
</g><style type="text/css">@keyframes animate-aadwguflzp7 { 0.00% {animation-timing-function: cubic-bezier(0.33,0.00,0.67,0.00);transform: translate(0.00px,0.00px) rotate(0.00deg) scale(1.00, 1.00) skew(0deg, 0.00deg) ;opacity: 1.00;}48.00% {transform: translate(0.00px,0.00px) rotate(0.00deg) ;opacity: 1.00;}50.00% {animation-timing-function: cubic-bezier(0.33,0.00,0.67,0.00);transform: translate(0.00px,0.00px) rotate(0.00deg) ;opacity: 0.00;}100.00% {animation-timing-function: cubic-bezier(0.33,0.00,0.67,0.00);transform: translate(0.00px,0.00px) rotate(0.00deg) ;opacity: 0.00;} }</style><!-- [ldio] generated by https://loading.io --></svg>